<svg width="62" height="72" viewBox="0 0 62 72" fill="none" xmlns="http://www.w3.org/2000/svg">
<g clip-path="url(#clip0_2_19)">
<path d="M4.64485 72C3.99762 71.5681 3.84534 71.0047 4.0357 70.2347C4.47352 68.4695 4.79713 66.6667 5.21592 64.9014C5.33014 64.3756 5.21592 64.0563 4.79713 63.6995C3.36944 62.4976 1.99885 61.2394 0.60923 60C0.171404 59.6244 -0.133171 59.1925 0.0952601 58.5915C0.304655 57.9906 0.799589 57.8404 1.3897 57.784C3.2933 57.615 5.21592 57.4272 7.11952 57.1831C7.40506 57.1455 7.76674 56.8826 7.88095 56.6197C8.6995 54.9108 9.46093 53.1643 10.2224 51.4366C10.4698 50.892 10.7554 50.4413 11.4597 50.4601C12.126 50.4789 12.3925 50.9108 12.6209 51.4366C13.3823 53.1455 14.1628 54.8545 14.9242 56.5634C15.1146 56.9765 15.3621 57.1643 15.8189 57.2019C17.7606 57.3709 19.6832 57.5775 21.6249 57.7653C22.1579 57.8216 22.5767 58.0282 22.7861 58.554C22.9955 59.0986 22.767 59.5117 22.3673 59.8685C20.9206 61.1643 19.4929 62.4601 18.0271 63.7183C17.6464 64.0375 17.5512 64.338 17.6464 64.8075C18.0461 66.5915 18.3888 68.3756 18.8266 70.1408C19.017 70.9108 18.9028 71.5117 18.2175 71.9624C17.9319 71.9624 17.6464 71.9624 17.3608 71.9624C15.4953 70.8732 13.6108 69.784 11.7262 68.7136C11.5739 68.6385 11.3074 68.6385 11.1551 68.7136C9.27057 69.784 7.40505 70.8732 5.5205 71.9624C5.19689 72 4.93038 72 4.64485 72ZM16.0854 68.6009C15.7618 67.061 15.4953 65.6901 15.1717 64.338C15.0004 63.6432 15.2098 63.1737 15.7238 62.7418C16.5233 62.0469 17.3228 61.3333 18.1032 60.6385C18.3507 60.4131 18.5982 60.1878 18.9599 59.8685C17.3989 59.6995 16.0093 59.5117 14.6197 59.4178C13.8392 59.3615 13.4394 58.9859 13.1539 58.3099C12.6209 57.0516 12.0308 55.7934 11.4026 54.4413C10.7744 55.8498 10.1843 57.1455 9.59419 58.4413C9.34672 59.0047 8.966 59.3239 8.31878 59.3803C6.89108 59.493 5.46339 59.6807 3.86437 59.8498C4.72099 60.6197 5.46339 61.2958 6.20579 61.953C8.12842 63.6432 7.86192 63.23 7.36698 65.5962C7.15759 66.554 6.96723 67.5117 6.7388 68.6197C8.09035 67.8498 9.32768 67.1925 10.5079 66.4601C11.1361 66.0845 11.6691 66.0845 12.2973 66.4601C13.4965 67.1549 14.7148 67.831 16.0854 68.6009Z" fill="#42563E"/>
<path d="M43.8209 72C43.1166 71.5493 43.0214 70.9671 43.2117 70.1784C43.6496 68.4131 43.9922 66.6103 44.392 64.8451C44.4871 64.3756 44.392 64.0751 44.0113 63.7559C42.6026 62.5352 41.213 61.2958 39.8233 60.0563C39.3855 59.662 39.0048 59.2488 39.2523 58.6103C39.4807 57.9906 40.0137 57.8591 40.6229 57.8028C42.5264 57.6338 44.4491 57.446 46.3527 57.2019C46.6192 57.1643 46.9618 56.8638 47.076 56.6009C47.8755 54.9108 48.637 53.2019 49.3984 51.4742C49.6268 50.9484 49.8934 50.5164 50.5596 50.4976C51.2639 50.4789 51.5495 50.9296 51.7969 51.4742C52.5584 53.1831 53.3389 54.892 54.0813 56.6009C54.2716 57.0141 54.5191 57.2019 54.9759 57.2394C56.9176 57.4084 58.8402 57.615 60.7819 57.8028C61.3149 57.8591 61.7337 58.0657 61.9241 58.5915C62.1144 59.1361 61.905 59.5493 61.5053 59.9061C60.0205 61.2207 58.5357 62.5164 57.0699 63.8685C56.8795 64.0376 56.7463 64.4319 56.7844 64.6761C57.146 66.5352 57.5268 68.3944 57.9646 70.2347C58.1549 71.0047 58.0027 71.5493 57.3554 72C57.0699 72 56.7844 72 56.4988 72C54.6143 70.9108 52.7487 69.8216 50.8642 68.7512C50.7119 68.6761 50.4454 68.6573 50.2931 68.7512C48.4086 69.8216 46.543 70.9108 44.6585 72C44.392 72 44.1064 72 43.8209 72ZM43.0404 59.8498C43.897 60.6197 44.6394 61.277 45.3818 61.9343C47.2664 63.6056 47.076 63.1737 46.5621 65.5587C46.3527 66.5164 46.1623 67.493 45.9339 68.6009C47.1522 67.9061 48.2563 67.3615 49.2652 66.6854C50.1979 66.0469 50.9974 66.0657 51.9302 66.6854C52.9581 67.3615 54.0622 67.9249 55.2615 68.6009C54.9188 67.0422 54.6333 65.615 54.3097 64.2253C54.1764 63.6807 54.3287 63.2676 54.7285 62.892C55.2234 62.4413 55.7183 62.0094 56.2133 61.5775C56.8224 61.0329 57.4316 60.4883 58.1359 59.8498C56.5559 59.6807 55.1663 59.493 53.7576 59.3803C53.0533 59.3239 52.6345 58.9859 52.368 58.3662C51.816 57.0704 51.2259 55.8122 50.5977 54.4225C49.9695 55.8122 49.3794 57.108 48.8083 58.4038C48.5418 58.9859 48.1611 59.3239 47.4758 59.3803C46.0481 59.493 44.6394 59.662 43.0404 59.8498Z" fill="#42563E"/>
<path d="M25.3749 17.7653C26.2125 17.615 27.0311 17.5023 27.526 16.7887C28.7443 15.0047 29.9816 13.2394 31.1047 11.3991C32.2279 9.5399 32.3421 7.54929 31.8281 5.44601C31.5426 4.28169 31.4664 3.04225 31.4283 1.84037C31.3903 0.619716 32.0565 0.131453 33.2939 0.0563353C36.4919 -0.150238 38.681 1.29577 40.2229 3.94366C41.2318 5.69014 42.0885 7.51173 41.9171 9.57746C41.8029 10.8545 41.3461 12.1127 41.0415 13.3709C40.9653 13.6526 40.8131 13.9155 40.6798 14.2723C43.0212 14.2723 45.3055 14.2723 47.5708 14.2723C50.5023 14.2723 52.8247 16.6573 52.6724 19.5681C52.6344 20.2629 52.1965 20.9577 52.3107 21.5962C52.425 22.1972 53.0912 22.7042 53.3387 23.3052C54.1192 25.2019 53.7194 26.9296 52.3107 28.4131C52.0823 28.6573 51.892 28.8075 52.0062 29.2394C52.7105 31.6995 51.7016 33.8216 49.3412 34.9108C49.265 34.9484 49.1889 35.0047 49.2269 34.9859C49.1889 35.8685 49.265 36.6761 49.0937 37.4272C48.6939 39.2113 47.1901 40.4131 45.3626 40.5822C45.039 40.6197 44.6964 40.6197 44.3728 40.6197C39.0237 40.6197 33.6936 40.6573 28.3445 40.6197C27.3547 40.6197 26.3458 40.3192 25.3559 40.1502C25.1465 41.6338 24.6325 42.0657 23.0335 42.0657C19.3215 42.0657 15.6285 42.0657 11.9165 42.0657C9.59414 42.0657 8.24259 40.7512 8.24259 38.4413C8.24259 31.9061 8.26163 25.3709 8.22356 18.8357C8.20452 16.6197 9.7845 15.1549 11.8975 15.2113C15.6095 15.2676 19.3215 15.2113 23.0145 15.2113C24.7658 15.2113 25.2417 15.662 25.3178 17.3897C25.3178 17.5023 25.3559 17.5962 25.3749 17.7653ZM33.6365 2.32864C33.7888 3.2676 33.8459 4.15023 34.0743 4.9953C34.8738 7.9061 34.3408 10.6103 32.7799 13.1455C31.9423 14.4977 30.9715 15.7934 30.1339 17.1455C29.1631 18.6854 27.8877 19.7183 26.0412 20C25.4701 20.0939 25.2988 20.3756 25.2988 20.9577C25.3178 25.9718 25.3178 30.9859 25.3178 36C25.3178 37.4084 25.5082 37.7089 26.8978 38.1221C27.3166 38.2535 27.7735 38.3099 28.2303 38.3099C33.7698 38.3286 39.2902 38.3099 44.8296 38.3099C45.0961 38.3099 45.3626 38.2911 45.5911 38.216C46.9997 37.7653 47.3995 36.1502 46.3525 34.9859C45.9718 34.554 45.8005 34.1033 46.0479 33.5775C46.2954 33.0704 46.7523 32.9014 47.2853 32.9577C47.3804 32.9577 47.4756 32.9577 47.5708 32.9577C49.4363 32.939 50.5404 31.0422 49.6077 29.4648C48.8653 28.1878 48.9224 27.9437 50.1787 27.1925C51.6826 26.2911 51.8349 24.2253 50.4643 23.1361C49.3221 22.2347 49.3031 22.1033 49.9884 20.9014C51.1305 18.892 49.779 16.5258 47.4566 16.507C45.1152 16.4883 42.7547 16.507 40.4133 16.4883C39.0998 16.4883 38.1861 15.5117 38.2813 14.216C38.3194 13.8404 38.4716 13.446 38.643 13.0892C40.2991 9.91549 39.728 6.98591 37.6721 4.22535C36.7203 2.9108 35.464 2.19718 33.6365 2.32864ZM22.9764 39.7183C22.9764 32.2629 22.9764 24.8826 22.9764 17.4648C19.2834 17.4648 15.6666 17.4648 12.0307 17.4648C10.8124 17.4648 10.584 17.6901 10.584 18.9108C10.584 25.3709 10.584 31.831 10.584 38.3099C10.584 38.4789 10.584 38.6291 10.584 38.7981C10.603 39.3803 10.9267 39.7183 11.5168 39.7183C15.3049 39.7183 19.1121 39.7183 22.9764 39.7183Z" fill="#42563E"/>
<path d="M42.3931 51.3052C42.2979 51.4554 42.1075 51.8122 41.841 52.0563C40.4133 53.3521 38.9666 54.6479 37.5009 55.9061C37.1772 56.1878 37.1011 56.4507 37.1963 56.8826C37.6341 58.7793 37.9958 60.6761 38.4336 62.5728C38.5478 63.1174 38.4526 63.5493 37.9958 63.8685C37.5389 64.2066 37.0821 64.1127 36.6062 63.8498C34.9691 62.9108 33.3129 61.9906 31.6949 61.0329C31.1619 60.7136 30.7812 60.7512 30.2862 61.0516C28.7443 61.9718 27.1643 62.8357 25.6224 63.7371C25.0894 64.0376 24.5755 64.3005 23.9853 63.8685C23.3952 63.4366 23.4904 62.8732 23.6237 62.2723C24.0234 60.4695 24.3851 58.6667 24.8039 56.8638C24.8991 56.4319 24.8039 56.169 24.4803 55.9061C23.0336 54.6479 21.6249 53.3709 20.1782 52.1127C19.7213 51.7183 19.4548 51.2864 19.6452 50.7042C19.8355 50.1408 20.2924 49.9718 20.8635 49.9155C22.767 49.7277 24.6706 49.5023 26.5933 49.3333C27.1263 49.277 27.3547 49.0516 27.5451 48.6009C28.2875 46.9108 29.0679 45.2207 29.8103 43.5305C30.0388 43.0047 30.3624 42.5915 30.9906 42.5915C31.6378 42.5915 31.9424 43.0235 32.1708 43.5493C32.9513 45.2958 33.7317 47.061 34.5503 48.7887C34.6455 49.0141 34.95 49.2394 35.1975 49.277C37.2153 49.5211 39.2522 49.7277 41.27 49.953C42.0124 50.0094 42.3931 50.4225 42.3931 51.3052ZM26.3268 60.6948C27.6783 59.9249 28.8585 59.2864 30.0007 58.5915C30.686 58.1596 31.2761 58.1596 31.9804 58.5915C33.1416 59.3052 34.3409 59.9437 35.6544 60.6948C35.3498 59.2488 35.1023 57.9343 34.7787 56.6573C34.5884 55.8685 34.7216 55.2676 35.3879 54.7418C36.4348 53.8779 37.4247 52.939 38.5288 51.9624C37.044 51.7934 35.7115 51.6056 34.379 51.5305C33.5033 51.4742 33.0084 51.1174 32.6848 50.3286C32.1898 49.108 31.5997 47.9249 30.9906 46.554C30.3624 47.9437 29.7913 49.1643 29.2583 50.4038C28.9537 51.1361 28.4778 51.493 27.6593 51.5305C26.2887 51.6244 24.9371 51.8122 23.4523 51.9624C24.5564 52.9577 25.5653 53.8779 26.6123 54.7418C27.2405 55.2676 27.4118 55.831 27.2215 56.6009C26.8978 57.8779 26.6504 59.2113 26.3268 60.6948Z" fill="#42563E"/>
</g>
<defs>
<clipPath id="clip0_2_19">
<rect width="62" height="72" fill="white"/>
</clipPath>
</defs>
</svg>
