<svg width="67" height="72" viewBox="0 0 67 72" fill="none" xmlns="http://www.w3.org/2000/svg">
<g clip-path="url(#clip0_2_3)">
<path d="M66.9999 31.1956C66.9999 22.9698 66.9999 14.7439 66.9999 6.51812C66.9999 2.46534 64.5184 -0.0120239 60.4785 -0.0120239C48.8623 -0.0120239 37.2581 -0.0120239 25.6419 -0.0120239C25.3422 -0.0120239 25.0425 -0.0120239 24.7428 2.12993e-06C21.6739 0.180393 19.1325 2.85018 19.1565 5.85669C19.1565 5.91682 19.1565 5.97695 19.1685 6.02506C19.1685 7.21564 19.1685 8.39419 19.1685 9.58477H16.0157C12.0717 9.58477 9.57821 12.0742 9.57821 16.0428C9.57821 28.0808 9.57821 45.5186 9.57821 57.5928C7.24058 57.5928 4.91494 57.5928 2.57732 57.5928C0.970947 57.5928 0.0239084 58.5428 0.0119206 60.1423C-6.72706e-05 61.9462 -6.72706e-05 63.7381 0.0119206 65.542C0.0239084 69.4986 2.51738 71.988 6.46137 71.988C21.2903 71.988 36.1193 71.988 50.9482 71.988C54.9402 71.988 57.4336 69.4986 57.4336 65.4939V62.3792C58.5245 62.3792 59.6034 62.3792 60.6943 62.3792C60.7543 62.3792 60.8262 62.3791 60.8861 62.3671C60.8981 62.3671 60.9221 62.3671 60.9341 62.3792C61.2458 62.4152 61.5814 62.3792 61.9051 62.331C64.938 61.862 66.9999 59.3726 67.0119 56.1737C66.9999 47.8517 66.9999 39.5296 66.9999 31.1956ZM45.9013 69.6068C32.7267 69.6068 19.5521 69.6068 6.36547 69.6068C3.86001 69.6068 2.3975 68.1156 2.38551 65.5781C2.38551 63.7501 2.38551 61.9342 2.38551 60.0341H45.4578V61.1405C45.4578 61.5614 45.4578 61.9823 45.4578 62.3912C45.4698 63.3292 45.4698 64.2552 45.4458 65.1812C45.3979 66.7206 45.6256 68.1637 46.5966 69.5467C46.3089 69.5707 46.1051 69.6068 45.9013 69.6068ZM55.0121 65.6262C55.0121 66.2636 54.8922 66.937 54.6405 67.5143C53.9931 69.0416 52.3268 69.8353 50.6965 69.4865C49.0182 69.1258 47.8793 67.7428 47.8554 65.9268C47.8434 64.7483 47.8434 63.5697 47.8434 62.3912C47.8434 61.6696 47.8434 60.9481 47.8434 60.2265C47.8434 60.1543 47.8434 60.0702 47.8314 59.998C47.7355 58.4827 46.8004 57.6048 45.254 57.6048C34.1533 57.6048 23.0525 57.6048 11.9518 57.6048C11.9518 57.5086 11.9518 57.4124 11.9518 57.3282C11.9518 45.3503 11.9518 27.9486 11.9518 15.9706C11.9518 13.4932 13.4383 12.002 15.9078 12.002C16.9867 12.002 18.0656 12.002 19.1325 12.002H21.5181C31.3601 12.002 41.2021 12.002 51.0441 12.002C53.5136 12.002 55.0001 13.5053 55.0121 15.9826C55.0121 30.6544 55.0121 45.3262 55.0001 60.01C55.0001 60.8037 55.0001 61.6095 55.0001 62.4032C55.0241 63.4735 55.0241 64.5438 55.0121 65.6262ZM64.5904 56.4022C64.4585 58.3985 63.2717 59.6853 61.3057 59.9739C61.1619 59.998 61.018 59.998 60.8861 60.01C60.8382 60.01 60.7902 60.01 60.7423 60.01C59.6394 60.01 58.5245 60.01 57.4217 60.01C57.4217 53.6242 57.4217 47.2263 57.4217 40.8405C57.4217 32.5906 57.4217 24.3407 57.4217 16.0909C57.4217 12.1343 54.9282 9.62085 50.9962 9.60882C41.1781 9.60882 31.3601 9.60882 21.5421 9.60882C21.5421 8.40622 21.5421 7.21564 21.5301 6.01303C21.9137 3.46351 23.1484 2.39319 25.7258 2.39319C30.7847 2.39319 35.8436 2.39319 40.9024 2.39319C47.4598 2.39319 54.0051 2.39319 60.5625 2.39319C61.9051 2.39319 63.0679 2.77802 63.8951 3.90847C64.4825 4.71422 64.6024 5.64022 64.6024 6.61433C64.6024 23.0179 64.6024 39.4094 64.6024 55.8129C64.6024 55.9933 64.6143 56.1978 64.5904 56.4022Z" fill="#42563E"/>
<path d="M45.5299 28.8144C45.3381 28.7904 45.1343 28.8024 44.9305 28.8024C36.9107 28.8024 28.9028 28.8024 20.8829 28.8024C20.6552 28.8024 20.4274 28.7784 20.2116 28.8144C19.5643 28.9227 19.1927 29.3075 19.1567 29.9689C19.1327 30.6063 19.5763 31.1114 20.2356 31.1836C20.4514 31.2076 20.6791 31.1956 20.9069 31.1956C24.8869 31.1956 28.8788 31.1956 32.8588 31.1956C36.8627 31.1956 40.8786 31.1956 44.8826 31.1956C45.1103 31.1956 45.3381 31.2076 45.5539 31.1836C46.2012 31.1114 46.6568 30.6063 46.6568 29.981C46.6448 29.3556 46.1892 28.8746 45.5299 28.8144Z" fill="#42563E"/>
<path d="M20.1394 38.3751C20.3792 38.4112 20.6309 38.3992 20.8827 38.3992C24.8627 38.3992 28.8546 38.3992 32.8346 38.3992C36.8625 38.3992 40.9024 38.3992 44.9303 38.3992C45.1581 38.3992 45.3858 38.4233 45.6016 38.3872C46.2489 38.2789 46.6086 37.8701 46.6445 37.2206C46.6685 36.6314 46.225 36.1143 45.6256 36.0301C45.4098 35.994 45.182 36.018 44.9543 36.018C36.9104 36.018 28.8666 36.018 20.8347 36.018C20.607 36.018 20.3792 35.994 20.1634 36.0421C19.552 36.1624 19.1924 36.5352 19.1564 37.1725C19.1205 37.7618 19.5401 38.2789 20.1394 38.3751Z" fill="#42563E"/>
<path d="M45.5539 43.2096C45.3621 43.1856 45.1583 43.1976 44.9545 43.1976C36.9106 43.1976 28.8668 43.1976 20.835 43.1976C20.6312 43.1976 20.4394 43.1856 20.2356 43.2096C19.5882 43.2818 19.1327 43.7748 19.1567 44.4122C19.1806 45.0857 19.5643 45.4705 20.1996 45.5788C20.4154 45.6148 20.6432 45.5908 20.8709 45.5908C24.8509 45.5908 28.8428 45.5908 32.8228 45.5908C36.8267 45.5908 40.8427 45.5908 44.8466 45.5908C45.0744 45.5908 45.2901 45.6028 45.5179 45.5788C46.1772 45.5186 46.6328 45.0376 46.6448 44.4122C46.6568 43.7989 46.2012 43.2818 45.5539 43.2096Z" fill="#42563E"/>
<path d="M40.6387 50.4132C40.411 50.4012 40.1952 50.4132 39.9674 50.4132C34.3451 50.4132 28.7108 50.4132 23.0885 50.4132C22.1655 50.4132 21.2424 50.3892 20.3313 50.4253C19.3843 50.4613 18.8568 51.3994 19.3004 52.1931C19.6001 52.7222 20.0796 52.8184 20.643 52.8184C23.9277 52.8064 27.2123 52.8184 30.497 52.8184C32.8346 52.8184 35.1723 52.8184 37.5219 52.8184C38.5648 52.8184 39.6078 52.8305 40.6627 52.8064C41.382 52.7944 41.8615 52.3013 41.8855 51.6519C41.8855 50.9544 41.382 50.4493 40.6387 50.4132Z" fill="#42563E"/>
<path d="M26.3969 23.992C32.7145 24.004 39.0441 24.004 45.3617 23.98C45.7093 23.98 46.1888 23.7755 46.3686 23.4989C46.5724 23.1983 46.6204 22.6932 46.5245 22.3324C46.3686 21.7672 45.8532 21.5988 45.2777 21.5988C42.1369 21.6108 39.0081 21.5988 35.8673 21.5988C32.7265 21.5988 29.5977 21.5988 26.4568 21.5988C25.6297 21.5988 25.1382 22.0798 25.1382 22.8014C25.1382 23.4989 25.6297 23.992 26.3969 23.992Z" fill="#42563E"/>
</g>
<defs>
<clipPath id="clip0_2_3">
<rect width="67" height="72" fill="white"/>
</clipPath>
</defs>
</svg>
