<svg width="52" height="72" viewBox="0 0 52 72" fill="none" xmlns="http://www.w3.org/2000/svg">
<g clip-path="url(#clip0_2_15)">
<path d="M15.0125 61.5285C13.8683 59.8027 13.8683 58.6004 14.9928 56.9328C13.8092 54.6058 13.8881 53.5393 15.4662 51.8329C14.5588 49.661 13.1187 47.877 11.146 46.5002C8.89717 44.9102 6.90476 43.0486 5.22798 40.8768C-5.06944 27.5937 0.49353 7.96967 16.3145 1.82262C30.9913 -3.85904 47.2265 4.22715 51.1916 19.1973C53.8547 29.242 49.9093 40.0429 41.3084 46.1706C39.2174 47.6637 37.5406 49.4671 36.5345 51.8329C38.1324 53.8108 38.231 54.8773 36.9882 56.894C38.0929 58.8913 38.0929 59.7833 36.9488 61.5673C37.6392 62.4205 37.9548 63.4289 37.7378 64.5148C37.5011 65.6977 36.7712 66.5315 35.6665 67.0744C35.3706 67.2102 35.0747 67.4817 34.9366 67.7725C33.5163 70.4873 31.2872 71.9611 28.1703 71.9804C26.2568 71.9998 24.3236 72.0774 22.4298 71.8253C19.9245 71.4957 18.1688 69.9637 17.0444 67.7531C16.926 67.5398 16.7682 67.2877 16.5709 67.1714C14.0459 65.8916 13.4738 63.9136 15.0125 61.5285ZM29.5709 51.096C31.0504 51.096 32.451 51.1154 33.8517 51.0766C34.0292 51.0766 34.3251 50.9021 34.3843 50.7276C35.6468 47.8576 37.797 45.7634 40.3023 43.9406C47.838 38.4141 51.2705 28.5633 48.8243 19.6433C44.8592 5.11915 28.407 -1.97808 14.8941 5.08037C6.01705 9.71489 1.38124 19.0033 2.56485 28.2918C3.41311 34.943 6.64831 40.3144 12.1718 44.309C14.5193 45.9961 16.3934 48.0709 17.577 50.6888C17.6559 50.8633 17.8532 51.0766 18.011 51.0766C19.4708 51.1154 20.9503 51.096 22.4101 51.096C22.4101 46.4033 22.4101 41.7881 22.4101 37.1536C21.1081 37.1536 19.8456 37.173 18.6028 37.1536C15.7227 37.0954 13.1187 34.5746 13.0201 31.7628C12.9806 30.58 13.3554 30.1921 14.5785 30.1921C20.753 30.1921 26.9275 30.1921 33.102 30.1921C34.6604 30.1921 36.1991 30.1921 37.7576 30.1921C38.5466 30.1921 38.9806 30.6381 39.0004 31.4138C39.0004 31.724 38.9806 32.0537 38.9215 32.3446C38.3296 35.2533 36.0019 37.1342 32.9639 37.1536C31.8395 37.1536 30.7151 37.1536 29.5906 37.1536C29.5709 41.8269 29.5709 46.4227 29.5709 51.096ZM15.6635 32.5385C16.0777 33.8571 17.3008 34.8073 18.7803 34.8073C23.574 34.8461 28.3873 34.8461 33.1809 34.8073C34.6604 34.7879 35.9032 33.8377 36.278 32.5385C29.4328 32.5385 22.5876 32.5385 15.6635 32.5385ZM26.0004 55.7305C28.6832 55.7305 31.3463 55.7305 34.0292 55.7305C34.8774 55.7305 35.4298 55.2457 35.4298 54.567C35.4298 53.8883 34.8577 53.4229 34.0095 53.4035C33.8319 53.4035 33.6741 53.4035 33.4966 53.4035C28.624 53.4035 23.7712 53.4035 18.8987 53.4035C18.4844 53.4035 18.0504 53.3648 17.6559 53.4229C16.8076 53.5199 16.3342 54.2762 16.6498 54.9936C16.9063 55.5948 17.4192 55.7305 18.0307 55.7305C20.6938 55.7305 23.3372 55.7305 26.0004 55.7305ZM26.0004 60.3844C28.6832 60.3844 31.3463 60.3844 34.0292 60.3844C34.8774 60.3844 35.4298 59.8996 35.4298 59.2209C35.4298 58.5423 34.8577 58.0769 34.0095 58.0575C33.9108 58.0575 33.8122 58.0575 33.7136 58.0575C28.5451 58.0575 23.3964 58.0575 18.228 58.0575C17.9123 58.0575 17.5178 58.0187 17.3008 58.1932C16.9655 58.4647 16.5709 58.8719 16.5709 59.2209C16.5709 59.57 16.9852 59.9772 17.3008 60.2487C17.4784 60.4038 17.8532 60.365 18.1491 60.365C20.7925 60.3844 23.3964 60.3844 26.0004 60.3844ZM25.9806 65.019C28.6832 65.019 31.3858 65.019 34.0884 65.019C34.8774 65.019 35.4298 64.5148 35.4298 63.8555C35.4298 63.1962 34.8972 62.7308 34.0884 62.692C33.9108 62.692 33.753 62.692 33.5755 62.692C28.8608 62.692 24.146 62.692 19.4313 62.692C18.8592 62.692 18.3069 62.6726 17.7348 62.7114C16.9852 62.7502 16.4526 63.3707 16.5512 64.0106C16.6498 64.6505 17.1627 65.019 18.0307 65.0383C20.6938 65.019 23.3372 65.019 25.9806 65.019ZM27.1248 51.0572C27.1248 46.4033 27.1248 41.7881 27.1248 37.2118C26.316 37.2118 25.5861 37.2118 24.8562 37.2118C24.8562 41.8463 24.8562 46.4421 24.8562 51.0572C25.6058 51.0572 26.3357 51.0572 27.1248 51.0572ZM19.5694 67.3847C20.3979 68.587 21.4435 69.4208 22.7849 69.5177C24.9351 69.6535 27.1051 69.6535 29.2553 69.5177C30.577 69.4402 31.6225 68.6064 32.4313 67.4041C28.0914 67.3847 23.9093 67.3847 19.5694 67.3847Z" fill="#42563E"/>
<path d="M38.9805 19.7985C38.9805 21.9898 38.9805 24.2004 38.9805 26.3916C38.9805 26.9346 38.9016 27.3999 38.369 27.6908C37.8166 28.0011 37.3432 27.8072 36.8698 27.4775C35.5875 26.6049 34.325 25.7517 32.7074 25.5966C31.149 25.4414 29.7286 25.7323 28.4069 26.5079C27.8349 26.8376 27.3022 27.2254 26.7499 27.5745C26.237 27.9041 25.7438 27.9041 25.2309 27.5745C24.7377 27.2448 24.2643 26.9152 23.7514 26.6243C21.3053 25.1506 18.8394 25.1699 16.3933 26.6437C15.9001 26.9539 15.4267 27.303 14.9138 27.5939C13.9669 28.1562 13.02 27.6714 13.0003 26.5855C12.9805 21.9898 12.9805 17.394 13.02 12.7983C13.02 12.4686 13.1975 12.042 13.4343 11.8481C15.4464 10.3162 17.6361 9.15271 20.2992 9.24966C22.193 9.30784 23.9289 9.87019 25.4479 10.9755C25.8424 11.2664 26.1384 11.247 26.5526 10.9755C30.1034 8.64853 33.7135 8.7261 37.3235 10.9561C38.5663 11.7318 39.1383 12.5656 39.0397 14.0393C38.8819 15.9785 38.9805 17.8982 38.9805 19.7985ZM36.5541 24.4525C36.5936 24.3361 36.633 24.2779 36.633 24.2198C36.633 20.7487 36.6528 17.2583 36.6133 13.7872C36.6133 13.5739 36.416 13.3025 36.2385 13.1861C33.3584 11.15 30.6163 11.15 27.6573 13.1085C27.322 13.3412 27.1641 13.5739 27.1839 13.9811C27.2036 17.3358 27.1839 20.6905 27.2036 24.0452C27.2036 24.181 27.2233 24.3167 27.2431 24.5106C30.3402 22.8236 33.4373 22.8236 36.5541 24.4525ZM24.7377 24.4719C24.7772 24.3749 24.8167 24.3361 24.8167 24.2779C24.8167 20.7681 24.8364 17.2777 24.8167 13.7678C24.8167 13.5545 24.6194 13.2831 24.4418 13.1667C21.542 11.1306 18.8197 11.1306 15.8607 13.0891C15.5253 13.3218 15.3872 13.5545 15.3872 13.9618C15.4069 17.2777 15.3872 20.5742 15.4069 23.8901C15.4069 24.0646 15.4464 24.2392 15.4661 24.4719C18.5632 22.7654 21.6604 22.8042 24.7377 24.4719Z" fill="#42563E"/>
</g>
<defs>
<clipPath id="clip0_2_15">
<rect width="52" height="72" fill="white"/>
</clipPath>
</defs>
</svg>
